<mxfile host="Electron" modified="2023-10-03T11:43:14.685Z" agent="Mozilla/5.0 (Macintosh; Intel Mac OS X 10_15_7) AppleWebKit/537.36 (KHTML, like Gecko) draw.io/21.6.5 Chrome/114.0.5735.243 Electron/25.3.1 Safari/537.36" etag="O5c_V8AntJZpbTb2YoD9" version="21.6.5" type="device">
  <diagram name="第 1 页" id="6Q1S2VH4qRFOiCm3E4BW">
    <mxGraphModel dx="574" dy="317" grid="1" gridSize="10" guides="1" tooltips="1" connect="1" arrows="1" fold="1" page="1" pageScale="1" pageWidth="827" pageHeight="1169" math="0" shadow="0">
      <root>
        <mxCell id="0" />
        <mxCell id="1" parent="0" />
        <mxCell id="-zl9H4q35V_uMnpsrfQ7-6" value="" style="ellipse;whiteSpace=wrap;html=1;" vertex="1" parent="1">
          <mxGeometry x="210" y="300" width="300" height="180" as="geometry" />
        </mxCell>
        <mxCell id="-zl9H4q35V_uMnpsrfQ7-8" style="edgeStyle=orthogonalEdgeStyle;rounded=0;orthogonalLoop=1;jettySize=auto;html=1;exitX=0.25;exitY=1;exitDx=0;exitDy=0;entryX=0.25;entryY=0;entryDx=0;entryDy=0;" edge="1" parent="1" source="-zl9H4q35V_uMnpsrfQ7-1" target="-zl9H4q35V_uMnpsrfQ7-2">
          <mxGeometry relative="1" as="geometry" />
        </mxCell>
        <mxCell id="-zl9H4q35V_uMnpsrfQ7-1" value="Client App" style="rounded=1;whiteSpace=wrap;html=1;" vertex="1" parent="1">
          <mxGeometry x="320" y="200" width="80" height="40" as="geometry" />
        </mxCell>
        <mxCell id="-zl9H4q35V_uMnpsrfQ7-7" style="edgeStyle=orthogonalEdgeStyle;rounded=0;orthogonalLoop=1;jettySize=auto;html=1;exitX=0.75;exitY=0;exitDx=0;exitDy=0;entryX=0.75;entryY=1;entryDx=0;entryDy=0;" edge="1" parent="1" source="-zl9H4q35V_uMnpsrfQ7-2" target="-zl9H4q35V_uMnpsrfQ7-1">
          <mxGeometry relative="1" as="geometry" />
        </mxCell>
        <mxCell id="-zl9H4q35V_uMnpsrfQ7-12" style="edgeStyle=orthogonalEdgeStyle;rounded=0;orthogonalLoop=1;jettySize=auto;html=1;entryX=0.5;entryY=0;entryDx=0;entryDy=0;" edge="1" parent="1" source="-zl9H4q35V_uMnpsrfQ7-2" target="-zl9H4q35V_uMnpsrfQ7-3">
          <mxGeometry relative="1" as="geometry" />
        </mxCell>
        <mxCell id="-zl9H4q35V_uMnpsrfQ7-13" style="edgeStyle=orthogonalEdgeStyle;rounded=0;orthogonalLoop=1;jettySize=auto;html=1;entryX=0.5;entryY=0;entryDx=0;entryDy=0;" edge="1" parent="1" source="-zl9H4q35V_uMnpsrfQ7-2" target="-zl9H4q35V_uMnpsrfQ7-4">
          <mxGeometry relative="1" as="geometry" />
        </mxCell>
        <mxCell id="-zl9H4q35V_uMnpsrfQ7-2" value="Primary" style="rounded=1;whiteSpace=wrap;html=1;" vertex="1" parent="1">
          <mxGeometry x="320" y="320" width="80" height="40" as="geometry" />
        </mxCell>
        <mxCell id="-zl9H4q35V_uMnpsrfQ7-3" value="Secondary" style="rounded=1;whiteSpace=wrap;html=1;" vertex="1" parent="1">
          <mxGeometry x="240" y="400" width="80" height="40" as="geometry" />
        </mxCell>
        <mxCell id="-zl9H4q35V_uMnpsrfQ7-4" value="Secondary" style="rounded=1;whiteSpace=wrap;html=1;" vertex="1" parent="1">
          <mxGeometry x="400" y="400" width="80" height="40" as="geometry" />
        </mxCell>
        <mxCell id="-zl9H4q35V_uMnpsrfQ7-17" value="讀" style="text;html=1;align=center;verticalAlign=middle;resizable=0;points=[];autosize=1;strokeColor=none;fillColor=none;" vertex="1" parent="1">
          <mxGeometry x="380" y="258" width="40" height="30" as="geometry" />
        </mxCell>
        <mxCell id="-zl9H4q35V_uMnpsrfQ7-18" value="寫" style="text;html=1;align=center;verticalAlign=middle;resizable=0;points=[];autosize=1;strokeColor=none;fillColor=none;" vertex="1" parent="1">
          <mxGeometry x="300" y="258" width="40" height="30" as="geometry" />
        </mxCell>
        <mxCell id="-zl9H4q35V_uMnpsrfQ7-19" value="複寫" style="text;html=1;align=center;verticalAlign=middle;resizable=0;points=[];autosize=1;strokeColor=none;fillColor=none;" vertex="1" parent="1">
          <mxGeometry x="415" y="350" width="50" height="30" as="geometry" />
        </mxCell>
        <mxCell id="-zl9H4q35V_uMnpsrfQ7-20" value="複寫" style="text;html=1;align=center;verticalAlign=middle;resizable=0;points=[];autosize=1;strokeColor=none;fillColor=none;" vertex="1" parent="1">
          <mxGeometry x="255" y="350" width="50" height="30" as="geometry" />
        </mxCell>
      </root>
    </mxGraphModel>
  </diagram>
</mxfile>
